<?xml version="1.0" ?><!-- Created with Inkscape (http://www.inkscape.org/) --><!DOCTYPE svg  PUBLIC '-//W3C//DTD SVG 1.1//EN'  'http://www.w3.org/Graphics/SVG/1.1/DTD/svg11.dtd' [
	<!ENTITY stroke_color "#666666">
	<!ENTITY fill_color "#ffffff">
]><svg height="55" id="svg8" inkscape:export-filename="E:\carbonic\res\logo.png" inkscape:export-xdpi="96" inkscape:export-ydpi="96" inkscape:version="0.92.4 (unknown)" sodipodi:docname="activity-carbonic.svg" version="1.1" viewBox="0 0 14.552083 14.552083" width="55" xmlns="http://www.w3.org/2000/svg" xmlns:cc="http://creativecommons.org/ns#" xmlns:dc="http://purl.org/dc/elements/1.1/" xmlns:inkscape="http://www.inkscape.org/namespaces/inkscape" xmlns:rdf="http://www.w3.org/1999/02/22-rdf-syntax-ns#" xmlns:sodipodi="http://sodipodi.sourceforge.net/DTD/sodipodi-0.dtd" xmlns:svg="http://www.w3.org/2000/svg">
  <defs id="defs2">
    <inkscape:path-effect effect="spiro" id="path-effect957" is_visible="true"/>
    <inkscape:path-effect apply_no_weight="true" apply_with_weight="true" effect="bspline" helper_size="0" id="path-effect953" is_visible="true" only_selected="false" steps="2" weight="33.333333"/>
    <filter id="filter911" inkscape:label="Drop Shadow" style="color-interpolation-filters:sRGB">
      <feFlood flood-color="rgb(0,0,0)" flood-opacity="0.498039" id="feFlood901" result="flood"/>
      <feComposite id="feComposite903" in="flood" in2="SourceGraphic" operator="in" result="composite1"/>
      <feGaussianBlur id="feGaussianBlur905" in="composite1" result="blur" stdDeviation="3"/>
      <feOffset dx="-0.5" dy="0" id="feOffset907" result="offset"/>
      <feComposite id="feComposite909" in="SourceGraphic" in2="offset" operator="over" result="composite2"/>
    </filter>
    <filter id="filter911-3" inkscape:label="Drop Shadow" style="color-interpolation-filters:sRGB">
      <feFlood flood-color="rgb(0,0,0)" flood-opacity="0.498039" id="feFlood901-6" result="flood"/>
      <feComposite id="feComposite903-1" in="flood" in2="SourceGraphic" operator="in" result="composite1"/>
      <feGaussianBlur id="feGaussianBlur905-0" in="composite1" result="blur" stdDeviation="3"/>
      <feOffset dx="-0.5" dy="0" id="feOffset907-7" result="offset"/>
      <feComposite id="feComposite909-3" in="SourceGraphic" in2="offset" operator="over" result="composite2"/>
    </filter>
    <inkscape:path-effect effect="spiro" id="path-effect957-0" is_visible="true"/>
    <inkscape:path-effect effect="spiro" id="path-effect957-0-3" is_visible="true"/>
  </defs>
  <sodipodi:namedview bordercolor="#666666" borderopacity="1.0" id="base" inkscape:current-layer="g2344" inkscape:cx="13.893381" inkscape:cy="12.226734" inkscape:document-units="mm" inkscape:pageopacity="0.0" inkscape:pageshadow="2" inkscape:snap-global="false" inkscape:window-height="704" inkscape:window-maximized="1" inkscape:window-width="1366" inkscape:window-x="0" inkscape:window-y="27" inkscape:zoom="7.9195959" pagecolor="#ffffff" showgrid="false" showguides="true" units="px"/>
  <metadata id="metadata5">
    <rdf:RDF>
      <cc:Work rdf:about="">
        <dc:format>image/svg+xml</dc:format>
        <dc:type rdf:resource="http://purl.org/dc/dcmitype/StillImage"/>
        <dc:title/>
      </cc:Work>
    </rdf:RDF>
  </metadata>
  <g id="layer1" inkscape:groupmode="layer" inkscape:label="Layer 1" transform="translate(-10.130797,-149.21876)">
    <g id="g839">
      <g id="g935" transform="matrix(0.84441128,0,0,0.84441128,0.55577546,2.4425127)">
        <g id="g2303" transform="matrix(0.08352426,0,0,0.08352426,10.950355,173.73285)">
          <g id="g2344" transform="matrix(0.96702786,0,0,0.96702786,3.5643282,3.5364589)">
            <path d="m 179.01738,149.69955 c -28.86165,48.22301 -16.02216,41.07684 -72.21534,40.19342 -56.19317,-0.88342 -43.584659,6.66282 -70.916183,-42.4436 C 8.5543328,98.342943 8.323352,113.03536 37.185002,64.812348 66.046652,16.589341 53.207159,23.735512 109.40033,24.61893 c 56.19318,0.883419 43.58467,-6.662823 70.91619,42.443603 27.33152,49.106427 27.56251,34.414017 -1.29914,82.637017 z" id="path1215" inkscape:flatsided="true" inkscape:randomized="0" inkscape:rounded="0.68" sodipodi:arg1="0.53931858" sodipodi:arg2="1.0629174" sodipodi:cx="108.10119" sodipodi:cy="107.25595" sodipodi:r1="82.647232" sodipodi:r2="71.574615" sodipodi:sides="6" sodipodi:type="star" style="opacity:1;fill:&fill_color;;fill-opacity:1;fill-rule:nonzero;stroke:none;stroke-width:0.31956363;stroke-linecap:round;stroke-linejoin:miter;stroke-miterlimit:4;stroke-dasharray:2.55650878, 0.6391272, 0.3195636, 0.6391272;stroke-dashoffset:0;stroke-opacity:1" transform="matrix(0.97183084,-0.01379115,0.01379115,0.97183084,1.5659367,4.5121498)"/>
            <path d="m 384.76953,168.69531 a 28.263021,27.887379 0 0 1 0.45117,-1.60937 27.940086,27.940086 0 0 0 -0.0156,0.0371 27.940086,27.940086 0 0 0 -0.43555,1.57226 z" id="path894" inkscape:connector-curvature="0" style="font-style:normal;font-variant:normal;font-weight:bold;font-stretch:normal;font-size:128.66061401px;line-height:1.25;font-family:'Century Gothic';-inkscape-font-specification:'Century Gothic Bold';letter-spacing:0px;word-spacing:0px;fill:&stroke_color;;fill-opacity:1;stroke:none;stroke-width:10.26542854;filter:url(#filter911)" transform="matrix(0.31333467,0,0,0.31333467,9.4592797,23.457686)"/>
            <path d="m 394.01953,197.33594 a 28.263021,27.887379 0 0 1 -1.78515,-1.56641 28.263021,27.887379 0 0 1 -1.91407,-2.05078 28.263021,27.887379 0 0 1 -1.69531,-2.22852 28.263021,27.887379 0 0 1 -1.46289,-2.38671 28.263021,27.887379 0 0 1 -1.21484,-2.51563 28.263021,27.887379 0 0 1 -0.95313,-2.625 28.263021,27.887379 0 0 1 -0.68164,-2.70508 28.263021,27.887379 0 0 1 -0.40625,-2.75781 28.263021,27.887379 0 0 1 -0.0371,-0.41406 28.263021,27.887379 0 0 1 -0.0801,-2.75 27.940086,27.940086 0 0 0 -0.002,0.0156 27.940086,27.940086 0 0 0 0.082,2.79102 27.940086,27.940086 0 0 0 0.0352,0.41406 27.940086,27.940086 0 0 0 0.40234,2.76367 27.940086,27.940086 0 0 0 0.67383,2.71094 27.940086,27.940086 0 0 0 0.94336,2.62891 27.940086,27.940086 0 0 0 1.19922,2.52148 27.940086,27.940086 0 0 0 1.44531,2.39063 27.940086,27.940086 0 0 0 1.67773,2.23242 27.940086,27.940086 0 0 0 1.65039,1.79101 c 0.71788,0.53802 1.41764,1.15042 2.12305,1.74024 z" id="path892" inkscape:connector-curvature="0" style="font-style:normal;font-variant:normal;font-weight:bold;font-stretch:normal;font-size:128.66061401px;line-height:1.25;font-family:'Century Gothic';-inkscape-font-specification:'Century Gothic Bold';letter-spacing:0px;word-spacing:0px;fill:&stroke_color;;fill-opacity:1;stroke:none;stroke-width:10.26542854;filter:url(#filter911)" transform="matrix(0.31333467,0,0,0.31333467,9.4592797,23.457686)"/>
            <path d="m 410.73633,148.00781 a 27.940086,27.940086 0 0 0 -2.78125,0.23633 27.940086,27.940086 0 0 0 -0.41211,0.0606 27.940086,27.940086 0 0 0 -2.73633,0.55469 27.940086,27.940086 0 0 0 -2.66992,0.82617 27.940086,27.940086 0 0 0 -2.57227,1.08789 27.940086,27.940086 0 0 0 -2.44922,1.33789 27.940086,27.940086 0 0 0 -2.30468,1.57812 27.940086,27.940086 0 0 0 -2.13672,1.79883 27.940086,27.940086 0 0 0 -1.94531,2.00391 27.940086,27.940086 0 0 0 -1.73633,2.1875 27.940086,27.940086 0 0 0 -1.50781,2.34961 27.940086,27.940086 0 0 0 -1.26758,2.49023 27.940086,27.940086 0 0 0 -0.9961,2.56641 28.263021,27.887379 0 0 1 1.02344,-2.59766 28.263021,27.887379 0 0 1 1.28125,-2.48437 28.263021,27.887379 0 0 1 1.52734,-2.34571 28.263021,27.887379 0 0 1 1.75586,-2.18359 28.263021,27.887379 0 0 1 1.96875,-2 28.263021,27.887379 0 0 1 2.16016,-1.79688 28.263021,27.887379 0 0 1 2.33203,-1.57421 28.263021,27.887379 0 0 1 2.47852,-1.33594 28.263021,27.887379 0 0 1 2.60156,-1.08594 28.263021,27.887379 0 0 1 2.69922,-0.82422 28.263021,27.887379 0 0 1 2.76953,-0.55469 28.263021,27.887379 0 0 1 0.41602,-0.0586 28.263021,27.887379 0 0 1 2.76757,-0.23242 27.940086,27.940086 0 0 0 -0.26562,-0.004 z" id="path878" inkscape:connector-curvature="0" style="font-style:normal;font-variant:normal;font-weight:bold;font-stretch:normal;font-size:128.66061401px;line-height:1.25;font-family:'Century Gothic';-inkscape-font-specification:'Century Gothic Bold';letter-spacing:0px;word-spacing:0px;fill:&stroke_color;;fill-opacity:1;stroke:none;stroke-width:10.26542854;filter:url(#filter911)" transform="matrix(0.31333467,0,0,0.31333467,9.4592797,23.457686)"/>
            <path d="m 138.23929,78.681025 c -4.96334,-4.611191 -11.13803,-7.906837 -17.73146,-9.463892 -6.59344,-1.557054 -13.59014,-1.371863 -20.09197,0.531802 -8.286993,2.426339 -15.71975,7.666333 -20.803877,14.645805 -5.084128,6.979471 -7.79171,15.65486 -7.597843,24.28757 0.193867,8.63272 3.285008,17.17256 8.647632,23.9404 5.362624,6.76784 12.963972,11.72717 21.314158,13.92621 7.73503,2.03703 16.07625,1.70826 23.62695,-0.93126 7.55071,-2.63952 14.28014,-7.57903 19.06147,-13.99145" id="path955-7-6" inkscape:connector-curvature="0" inkscape:original-d="m 138.23929,78.681025 c -10.29497,-0.14952 -27.67704,-8.633989 -37.82343,-8.93209 -10.146391,-0.2981 1.11276,50.837655 1.56007,76.799985 0.44731,25.96233 29.1109,-10.74523 42.68842,-14.92271" inkscape:path-effect="#path-effect957-0-3" sodipodi:nodetypes="cssc" style="fill:none;fill-opacity:1;stroke:&stroke_color;;stroke-width:17.04015923;stroke-linecap:round;stroke-linejoin:miter;stroke-miterlimit:4;stroke-dasharray:none;stroke-dashoffset:0;stroke-opacity:1" transform="matrix(0.99763892,0,0,0.99763892,-0.97445172,0.87560881)"/>
            <path d="m 215.3262,106.50001 -0.43761,0.43922 -52.7555,91.69395 -0.59919,-0.15938 -105.787032,0.15938 -0.16157,-0.5986 -53.0315413,-91.53457 0.437617,-0.43923 52.7554943,-91.693944 0.599187,0.159376 105.787035,-0.159376 0.16157,0.598599 z" id="path821-8" inkscape:flatsided="false" inkscape:randomized="0" inkscape:rounded="0" sodipodi:arg1="-1.0819282e-09" sodipodi:arg2="0.0041456032" sodipodi:cx="108.93998" sodipodi:cy="106.50001" sodipodi:r1="106.38622" sodipodi:r2="105.94952" sodipodi:sides="6" sodipodi:type="star" style="opacity:1;fill:none;fill-opacity:1;stroke:&stroke_color;;stroke-width:7.36648321;stroke-linecap:round;stroke-linejoin:round;stroke-miterlimit:4;stroke-dasharray:29.4659323, 14.73296615, 7.36648308, 14.73296615;stroke-dashoffset:0;stroke-opacity:1" transform="matrix(0.70808269,0,0,0.71147801,30.894713,30.992983)"/>
            <path d="m 130.85408,70.644176 c -9.57331,-4.021252 -20.64512,-4.346893 -30.43822,-0.895241 -8.123695,2.863258 -15.332805,8.281327 -20.306031,15.314085 -4.973225,7.032758 -7.680611,15.64985 -7.578894,24.26276 0.101718,8.61292 3.019169,17.17649 8.232108,24.03346 5.21294,6.85696 12.698059,11.96442 20.995677,14.27574 7.22782,2.01332 15.03211,1.90861 22.2033,-0.29791 7.1712,-2.20652 13.68442,-6.5072 18.53021,-12.23547" id="path955" inkscape:connector-curvature="0" inkscape:original-d="m 130.85408,70.644176 c -10.29497,-0.14952 -20.29183,-0.59714 -30.43822,-0.895241 -10.146391,-0.2981 0.89555,51.923715 1.34286,77.886045 0.44731,25.96233 27.15599,-8.3559 40.73351,-12.53338" inkscape:path-effect="#path-effect957" style="fill:none;stroke:&fill_color;;stroke-width:1.34896684;stroke-linecap:round;stroke-linejoin:miter;stroke-miterlimit:4;stroke-dasharray:10.79173486, 2.69793372, 1.34896686, 2.69793372;stroke-dashoffset:0;stroke-opacity:1" transform="matrix(0.931063,0,0,0.931063,5.5292368,8.0872886)"/>
            <path d="m 130.85408,70.644176 c -9.57331,-4.021252 -20.64512,-4.346893 -30.43822,-0.895241 -8.123695,2.863258 -15.332805,8.281327 -20.306031,15.314085 -4.973225,7.032758 -7.680611,15.64985 -7.578894,24.26276 0.101718,8.61292 3.019169,17.17649 8.232108,24.03346 5.21294,6.85696 12.698059,11.96442 20.995677,14.27574 7.22782,2.01332 15.03211,1.90861 22.2033,-0.29791 7.1712,-2.20652 13.68442,-6.5072 18.53021,-12.23547" id="path955-7" inkscape:connector-curvature="0" inkscape:original-d="m 130.85408,70.644176 c -10.29497,-0.14952 -20.29183,-0.59714 -30.43822,-0.895241 -10.146391,-0.2981 0.89555,51.923715 1.34286,77.886045 0.44731,25.96233 27.15599,-8.3559 40.73351,-12.53338" inkscape:path-effect="#path-effect957-0" style="fill:none;stroke:&fill_color;;stroke-width:1.41123283;stroke-linecap:round;stroke-linejoin:miter;stroke-miterlimit:4;stroke-dasharray:11.28986214, 2.82246554, 1.41123277, 2.82246554;stroke-dashoffset:0;stroke-opacity:1" transform="matrix(0.86098977,0,0,0.86098977,13.062271,15.670861)"/>
            <path d="m 179.01738,149.69955 c -28.86165,48.22301 -16.02216,41.07684 -72.21534,40.19342 -56.19317,-0.88342 -43.584659,6.66282 -70.916183,-42.4436 C 8.5543328,98.342943 8.323352,113.03536 37.185002,64.812348 66.046652,16.589341 53.207159,23.735512 109.40033,24.61893 c 56.19318,0.883419 43.58467,-6.662823 70.91619,42.443603 27.33152,49.106427 27.56251,34.414017 -1.29914,82.637017 z" id="path1215-5" inkscape:flatsided="true" inkscape:randomized="0" inkscape:rounded="0.68" sodipodi:arg1="0.53931858" sodipodi:arg2="1.0629174" sodipodi:cx="108.10119" sodipodi:cy="107.25595" sodipodi:r1="82.647232" sodipodi:r2="71.574615" sodipodi:sides="6" sodipodi:type="star" style="opacity:1;fill:none;fill-opacity:1;fill-rule:nonzero;stroke:&stroke_color;;stroke-width:14.44203099;stroke-linecap:round;stroke-linejoin:miter;stroke-miterlimit:4;stroke-dasharray:none;stroke-dashoffset:0;stroke-opacity:1" transform="matrix(1.0435553,-0.01480897,0.01480897,1.0435553,-6.2967268,-3.0706948)"/>
          </g>
        </g>
        <text id="text4924" style="font-style:normal;font-weight:normal;font-size:12.53338718px;line-height:1.25;font-family:sans-serif;letter-spacing:0px;word-spacing:0px;fill:#000000;fill-opacity:1;stroke:none;stroke-width:0.31333467" x="-24.470388" xml:space="preserve" y="216.12099"><tspan id="tspan4922" sodipodi:role="line" style="stroke-width:0.31333467" x="-24.470388" y="227.2101"/></text>
      </g>
    </g>
  </g>
</svg>